<svg width="244" height="64" viewBox="0 0 244 64" fill="none" xmlns="http://www.w3.org/2000/svg">
<rect x="31" y="31" width="23" height="14" rx="4" transform="rotate(-180 31 31)" fill="#005AF7"/>
<rect x="31" y="31" width="23" height="14" rx="4" transform="rotate(-180 31 31)" fill="url(#paint0_linear_66_1330)"/>
<rect x="54" y="52" width="46" height="14" rx="4" transform="rotate(-180 54 52)" fill="url(#paint1_linear_66_1330)"/>
<path d="M90.6 20.02C98.8 20.02 105.08 26.26 105.12 34.5C105.08 38.66 103.48 42.34 100.8 44.94L105.12 50.62L101.64 53.22L97.28 47.46C95.28 48.42 93.04 48.98 90.6 48.98C82.4 48.98 76.08 42.74 76.08 34.5C76.08 26.26 82.4 20.02 90.6 20.02ZM90.6 24.34C84.92 24.34 80.64 28.66 80.64 34.5C80.64 40.34 84.92 44.66 90.6 44.66C96.24 44.66 100.52 40.34 100.52 34.5C100.52 28.66 96.24 24.34 90.6 24.34ZM122.036 48.5V20.5H133.956C139.396 20.5 142.476 23.1 142.476 27.7C142.476 30.54 141.276 32.38 138.756 33.5C141.916 34.46 143.396 37.14 143.396 40.58C143.396 45.5 139.996 48.5 134.116 48.5H122.036ZM126.556 44.18H133.996C137.676 44.18 138.836 42.62 138.836 40.22C138.836 37.66 137.636 36.18 133.956 36.18H126.556V44.18ZM126.556 32.02H133.436C136.716 32.02 137.916 30.7 137.916 28.42C137.916 25.98 136.636 24.82 133.396 24.82H126.556V32.02ZM158.205 48.94C151.525 48.94 146.765 44.18 146.765 37.54C146.765 30.9 151.485 26.02 158.125 26.02C165.205 26.02 169.685 31.5 169.245 38.74H151.405C151.725 42.78 154.565 45.02 158.245 45.02C160.885 45.02 163.085 43.9 164.125 41.74H168.805C167.085 46.66 162.885 48.94 158.205 48.94ZM151.645 35.06H164.405C163.725 32.02 161.485 29.94 158.125 29.94C154.685 29.94 152.365 32.06 151.645 35.06ZM173.457 48.5V26.5H177.977V30.1C179.537 27.54 181.897 26.02 185.337 26.02C190.297 26.02 193.257 29.26 193.257 34.62V48.5H188.737V35.54C188.737 32.14 187.257 30.34 183.937 30.34C180.057 30.34 177.977 32.86 177.977 37.1V48.5H173.457ZM208.82 48.98C202.3 48.98 197.42 44.06 197.42 37.5C197.42 30.94 202.3 26.02 208.86 26.02C214.06 26.02 218.66 29.18 219.66 34.5H214.98C214.14 31.74 211.7 30.22 208.86 30.22C204.78 30.22 201.98 33.26 201.98 37.5C201.98 41.78 204.86 44.78 208.82 44.78C211.7 44.78 214.14 43.18 214.98 40.46H219.66C218.62 45.9 213.98 48.98 208.82 48.98ZM223.804 48.5V17.7H228.324V30.06C229.924 27.54 232.284 26.02 235.684 26.02C240.604 26.02 243.604 29.26 243.604 34.62V48.5H239.084V35.54C239.084 32.14 237.564 30.34 234.244 30.34C230.404 30.34 228.324 32.86 228.324 37.1V48.5H223.804Z" fill="#0050b2"/>
<defs>
<linearGradient id="paint0_linear_66_1330" x1="40.5" y1="40.9167" x2="39.4692" y2="29.337" gradientUnits="userSpaceOnUse">
<stop stop-color="#005FFE"/>
<stop offset="0.706428" stop-color="#0941CC"/>
</linearGradient>
<linearGradient id="paint1_linear_66_1330" x1="73" y1="61.9167" x2="72.4815" y2="50.2684" gradientUnits="userSpaceOnUse">
<stop stop-color="#005FFE"/>
<stop offset="0.706428" stop-color="#0941CC"/>
</linearGradient>
</defs>
</svg>

