<svg width="64" height="64" viewBox="0 0 64 64" fill="none" xmlns="http://www.w3.org/2000/svg">
<path d="M33.1716 29.1716L18.3284 14.3284C16.7663 12.7663 14.2337 12.7663 12.6716 14.3284L9.32842 17.6716C7.76633 19.2337 7.76633 21.7663 9.32843 23.3284L24.1716 38.1716C25.7337 39.7337 28.2663 39.7337 29.8284 38.1716L33.1716 34.8284C34.7337 33.2663 34.7337 30.7337 33.1716 29.1716Z" fill="#005AF7"/>
<path d="M33.1716 29.1716L18.3284 14.3284C16.7663 12.7663 14.2337 12.7663 12.6716 14.3284L9.32842 17.6716C7.76633 19.2337 7.76633 21.7663 9.32843 23.3284L24.1716 38.1716C25.7337 39.7337 28.2663 39.7337 29.8284 38.1716L33.1716 34.8284C34.7337 33.2663 34.7337 30.7337 33.1716 29.1716Z" fill="url(#paint0_linear_340_3759)"/>
<path d="M24.1716 25.8284L9.32843 40.6716C7.76633 42.2337 7.76633 44.7663 9.32843 46.3284L12.6716 49.6716C14.2337 51.2337 16.7663 51.2337 18.3284 49.6716L33.1716 34.8284C34.7337 33.2663 34.7337 30.7337 33.1716 29.1716L29.8284 25.8284C28.2663 24.2663 25.7337 24.2663 24.1716 25.8284Z" fill="#005AF7"/>
<path d="M24.1716 25.8284L9.32843 40.6716C7.76633 42.2337 7.76633 44.7663 9.32843 46.3284L12.6716 49.6716C14.2337 51.2337 16.7663 51.2337 18.3284 49.6716L33.1716 34.8284C34.7337 33.2663 34.7337 30.7337 33.1716 29.1716L29.8284 25.8284C28.2663 24.2663 25.7337 24.2663 24.1716 25.8284Z" fill="url(#paint1_linear_340_3759)"/>
<path d="M51.3553 39.4997L38.364 39.4997C36.1548 39.4997 34.364 41.2906 34.364 43.4997L34.364 46.8636C34.364 49.0727 36.1548 50.8636 38.364 50.8636L51.3553 50.8636C53.5645 50.8636 55.3553 49.0727 55.3553 46.8636L55.3553 43.4997C55.3553 41.2906 53.5645 39.4997 51.3553 39.4997Z" fill="url(#paint2_linear_340_3759)"/>
<defs>
<linearGradient id="paint0_linear_340_3759" x1="33.1752" y1="15.4007" x2="12.0985" y2="39.3889" gradientUnits="userSpaceOnUse">
<stop stop-color="#005FFE"/>
<stop offset="0.706428" stop-color="#0941CC"/>
</linearGradient>
<linearGradient id="paint1_linear_340_3759" x1="10.4007" y1="25.8248" x2="34.3889" y2="46.9015" gradientUnits="userSpaceOnUse">
<stop stop-color="#005FFE"/>
<stop offset="0.431428" stop-color="#0159F5"/>
<stop offset="0.9999" stop-color="#054BDD"/>
<stop offset="1" stop-color="#0941CC"/>
</linearGradient>
<linearGradient id="paint2_linear_340_3759" x1="46" y1="35" x2="47.9922" y2="52.7767" gradientUnits="userSpaceOnUse">
<stop stop-color="#005FFE"/>
<stop offset="0.28047" stop-color="#0159F5"/>
<stop offset="0.73457" stop-color="#054BDD"/>
<stop offset="1" stop-color="#0941CC"/>
</linearGradient>
</defs>
</svg>
